<svg id="Capa_1" enable-background="new 0 0 512 512" height="512" viewBox="0 0 512 512" width="512" xmlns="http://www.w3.org/2000/svg"><g><path d="m432.644 0h-343.105l-14.335 9.272-8.757 16.998v151.847l7.726 15.042 19.827 11.219h233.264l6.343-4.407h34.339l2.75 4.407h61.947c19.837 0 36.067-16.23 36.067-36.067v-132.244c0-19.837-16.23-36.067-36.066-36.067z" fill="#f27182"/><g><path d="m71.787 168.311v-132.244c0-19.837 16.231-36.067 36.067-36.067h-60.78c-19.837 0-36.067 16.23-36.067 36.067v132.245c0 19.837 16.23 36.067 36.067 36.067h60.781c-19.837-.001-36.068-16.231-36.068-36.068z" fill="#ed5469"/></g><g fill="#dbedff"><path d="m180.518 68.563c4.267 0 7.726-3.459 7.726-7.726s-3.459-7.726-7.726-7.726h-32.916c-4.267 0-7.726 3.459-7.726 7.726v84.12c0 4.267 3.459 7.726 7.726 7.726h32.916c4.267 0 7.726-3.459 7.726-7.726s-3.459-7.726-7.726-7.726h-25.19v-26.607h23.362c4.267 0 7.726-3.459 7.726-7.726s-3.459-7.726-7.726-7.726h-23.362v-26.609z"/><path d="m329.591 68.563c4.267 0 7.726-3.459 7.726-7.726s-3.459-7.726-7.726-7.726h-32.917c-4.267 0-7.726 3.459-7.726 7.726v84.12c0 4.267 3.459 7.726 7.726 7.726h32.917c4.267 0 7.726-3.459 7.726-7.726s-3.459-7.726-7.726-7.726h-25.191v-26.607h23.362c4.267 0 7.726-3.459 7.726-7.726s-3.459-7.726-7.726-7.726h-23.362v-26.609z"/><path d="m119.97 81.867c0-15.856-12.9-28.756-28.756-28.756h-25.082c-4.267 0-7.726 3.459-7.726 7.726v84.12c0 4.267 3.459 7.726 7.726 7.726s7.726-3.459 7.726-7.726v-34.333h1.318l30.129 39.053c1.522 1.973 3.81 3.008 6.123 3.008 1.648 0 3.308-.525 4.714-1.609 3.379-2.607 4.005-7.459 1.398-10.837l-23-29.814c14.295-1.655 25.43-13.827 25.43-28.558zm-28.756 13.303h-17.356v-26.607h17.356c7.336 0 13.303 5.968 13.303 13.304s-5.967 13.303-13.303 13.303z"/><path d="m245.804 95.758c-14.896-3.925-22.69-10.364-22.69-14.697 0-5.661 6.283-11.968 15.298-11.968 9.665 0 17.465 7.724 17.675 7.935 2.962 3.048 7.835 3.131 10.899.18 3.074-2.96 3.166-7.851.206-10.925-.497-.516-12.363-12.643-28.78-12.643-16.956 0-30.751 12.301-30.751 27.421 0 13.109 12.467 23.912 34.206 29.64 12.461 3.283 13.493 8.345 13.493 13.682 0 4.951-4.835 12.317-18.153 12.317-8.505 0-14.104-3.692-17.303-6.79-3.067-2.968-7.958-2.888-10.926.177-2.968 3.066-2.889 7.958.177 10.926 5.25 5.082 14.378 11.14 28.052 11.14 21.827 0 33.606-14.308 33.606-27.77 0-14.622-8.414-24.253-25.009-28.625z"/><path d="m413.585 53.111h-53.241c-4.267 0-7.726 3.459-7.726 7.726s3.459 7.726 7.726 7.726h18.894v76.393c0 4.267 3.459 7.726 7.726 7.726s7.726-3.459 7.726-7.726v-76.393h18.894c4.267 0 7.726-3.459 7.726-7.726.001-4.267-3.458-7.726-7.725-7.726z"/></g><path d="m479.946 301.402c-.733-.022-1.456-.006-2.172.043l-15.48 18.693-2.115-7.367c-1.667 3.074-2.618 6.594-2.618 10.337v-4.474c0-11.892-9.163-22.263-21.049-22.618-.599-.018-1.191-.004-1.779.025l-5.404 9.922-9.529 8.78-3.099-7.268c-1.638 3.053-2.571 6.54-2.571 10.247l-.001-4.474c-.001-11.892-9.165-22.264-21.052-22.618-.598-.018-1.19-.005-1.777.025l-4.209 5.385-9.787 13.528-2.608-9.784c-2.516 3.545-4 7.875-4 12.554v-111.593c0-7.496-3.643-14.384-9.312-18.544h-5.972l-5.666 9.67v153.187l-22.483-1.431c0 7.772-9.092 11.978-15 6.929-10.266-8.774-24.749-19.469-40.05-25.492l-6.77 3.734v15.453l74.173 87.565 21.768 47.732 29.915 26.098 23.128 6.318c22.756-.316 44.511-9.47 60.638-25.597 14.503-14.503 23.473-33.652 25.289-54.082.424-4.76.639-9.16.639-12.738v-95.527c0-11.891-9.162-22.26-21.047-22.618z" fill="#ffcebe"/><g fill="#ffb1a0"><g><path d="m327.238 343.981c3.61 3.918 6.986 7.514 10.108 10.182 5.908 5.05 15 .843 15-6.929v-147.401c0-7.261 3.565-13.69 9.039-17.633-3.325-2.439-7.344-3.942-11.739-4.074-12.297-.368-22.383 9.492-22.383 21.706v143.795c.001.123-.02.235-.025.354z"/><path d="m355.827 453.553c-3.837-10.958-8.529-21.072-14.064-27.316-24.937-28.135-54.431-62.993-68.029-79.154-5.186-6.162-5.885-15.009-1.519-22.018-1.42-.559-2.844-1.093-4.276-1.565-7.884-2.605-16.853-.312-21.756 6.388-5.252 7.175-4.781 16.708.708 23.231 13.598 16.161 43.092 51.019 68.029 79.154 5.535 6.244 10.226 16.358 14.064 27.316 10.945 31.26 40.22 52.364 73.341 52.363 3.729 0 7.133.024 10.275.046 3.238.023 6.455-.152 9.644-.483-30.097-3.634-56.289-29.036-66.417-57.962z"/></g><g><path d="m380.998 338.832c5.69 0 10.302-4.612 10.302-10.302v-37.873c-11.475.58-20.604 10.062-20.604 21.682v16.191c0 5.689 4.613 10.302 10.302 10.302z"/><path d="m424.431 338.832c5.69 0 10.302-4.612 10.302-10.302v-32.488c-11.475.581-20.604 10.062-20.603 21.682v-1.491 12.297c-.001 5.689 4.611 10.302 10.301 10.302z"/><path d="m478.165 328.53v-24.285c0-.971-.14-1.908-.391-2.799-11.29.772-20.21 10.172-20.213 21.657v5.427c0 5.69 4.612 10.302 10.302 10.302s10.302-4.613 10.302-10.302z"/></g></g></g></svg>